OpenSim_Sub09_CSBaseline_RCS.mot
version=1
nRows=26
nColumns=11
inDegrees=no
endheader
time	Top_Thigh	Med_Thigh	Bot_Thigh	Top_Shank	2nd_Top_Shank	2nd_Bot_Shank	Bot_Shank	BNOx	BNOy	BNOZ
29.20000000	2196.60703002	2074.20868288	1830.36894112	1320.68573635	1520.35873623	1315.62058676	1317.07912215	351.77507375	-71.72340714	-139.96953054
29.21000000	2198.96652390	2069.79373379	1829.01918337	1321.47954905	1523.61697050	1315.19284289	1317.15548463	352.06490735	-71.86032725	-141.28741882
29.22000000	2199.90698101	2065.39148030	1827.23942034	1322.25277621	1526.35419880	1314.81051599	1317.21625016	352.36817800	-71.95734778	-142.34668074
29.23000000	2199.75533313	2061.23542735	1825.29107801	1322.94940365	1528.54726960	1314.52731175	1317.25786218	352.71599546	-72.02180681	-143.22270112
29.24000000	2198.83851203	2057.55907983	1823.43558235	1323.51341718	1530.17303139	1314.39693587	1317.27676415	353.13946945	-72.06104237	-143.99086478
29.25000000	2197.48344947	2054.59594268	1821.93435935	1323.88880262	1531.20833264	1314.47309404	1317.26939949	353.66970973	-72.08239254	-144.72655655
29.26000000	2196.01707722	2052.57952079	1821.04883499	1324.01954578	1531.63002183	1314.80949196	1317.23221168	354.33782603	-72.09319538	-145.50516124
29.27000000	2194.76632706	2051.74331910	1821.04043524	1323.84963248	1531.41494744	1315.45983532	1317.16164415	355.17492809	-72.10078894	-146.40206368
29.28000000	2194.05813074	2052.32084251	1822.17058608	1323.32304854	1530.53995796	1316.47782981	1317.05414034	356.21212565	-72.11251128	-147.49264868
29.29000000	2194.18293900	2054.51099877	1824.59416889	1322.39232201	1528.99390453	1317.90869778	1316.90583101	357.46229777	-72.13542532	-148.83226248
29.30000000	2194.88533839	2057.99501953	1826.87184209	1321.13779837	1526.94523384	1319.67072544	1316.70816777	358.66553830	-72.17247703	-150.17641461
29.31000000	2195.48970805	2062.05562833	1826.33702812	1319.73821716	1524.70064555	1321.58448334	1316.44900026	359.35195055	-72.22344317	-151.04979971
29.32000000	2195.30961797	2065.96529772	1820.29158065	1318.37484897	1522.57039569	1323.46802845	1316.11608548	359.04623614	-72.28801895	-150.97117507
29.33000000	2193.70550642	2069.04236287	1806.23601237	1317.21762890	1520.84498446	1325.15056232	1315.69842163	357.30585760	-72.36582767	-149.49241004
29.34000000	2190.52166211	2071.07862708	1783.72171535	1316.31946899	1519.61096057	1326.57633912	1315.19782073	354.02648891	-72.45575015	-146.50720998
29.35000000	2185.88781954	2072.14521446	1753.50999044	1315.66424396	1518.83455231	1327.75748789	1314.62365429	349.30333056	-72.55622915	-142.11094520
29.36000000	2179.93740254	2072.31685931	1716.37777637	1315.23493621	1518.48043283	1328.70701494	1313.98539153	343.23416194	-72.66570178	-136.40159249
29.37000000	2172.80383495	2071.66829591	1673.10201186	1315.01452815	1518.51327530	1329.43792656	1313.29250165	335.91676242	-72.78260517	-129.47712864
29.38000000	2164.62054059	2070.27425856	1624.45963565	1314.98600220	1518.89775287	1329.96322907	1312.55445387	327.44891136	-72.90537641	-121.43553044
29.39000000	2155.52094330	2068.20948153	1571.22758648	1315.13234077	1519.59853869	1330.29592877	1311.78071739	317.92838813	-73.03245263	-112.37477467
29.40000000	2145.63846692	2065.54869913	1514.18280307	1315.43652626	1520.58030594	1330.44903196	1310.98076142	307.45297210	-73.16227094	-102.39283814
29.41000000	2135.10653528	2062.36664564	1454.10222415	1315.88154110	1521.80772776	1330.43554496	1310.16405518	296.12044265	-73.29326845	-91.58769762
29.42000000	2124.05857222	2058.73805535	1391.76278845	1316.45036768	1523.24547732	1330.26847407	1309.34006787	284.02857914	-73.42388227	-80.05732991
29.43000000	2112.62800156	2054.73766255	1327.94143471	1317.12598843	1524.85822777	1329.96082559	1308.51826871	271.27516095	-73.55254951	-67.89971179
29.44000000	2100.94824715	2050.44020153	1263.41510166	1317.89138575	1526.61065228	1329.52560583	1307.70812691	257.95796744	-73.67770729	-55.21282006
29.45000000	2089.15273281	2045.92040657	1198.96072802	1318.72954205	1528.46742400	1328.97582109	1306.91911167	244.17477798	-73.79779272	-42.09463151
